<?xml version="1.0" encoding="UTF-8" standalone="no"?>
<!-- Created with Inkscape (http://www.inkscape.org/) -->

<svg
   width="196.41292mm"
   height="51.414406mm"
   viewBox="0 0 196.41292 51.414406"
   version="1.1"
   id="svg5"
   inkscape:version="1.1.2 (b8e25be833, 2022-02-05)"
   sodipodi:docname="dibujo.svg"
   inkscape:export-filename="C:\Users\Usuario\rpmeter.png"
   inkscape:export-xdpi="306.97992"
   inkscape:export-ydpi="306.97992"
   xmlns:inkscape="http://www.inkscape.org/namespaces/inkscape"
   xmlns:sodipodi="http://sodipodi.sourceforge.net/DTD/sodipodi-0.dtd"
   xmlns="http://www.w3.org/2000/svg"
   xmlns:svg="http://www.w3.org/2000/svg">
  <sodipodi:namedview
     id="namedview7"
     pagecolor="#ffffff"
     bordercolor="#666666"
     borderopacity="1.0"
     inkscape:pageshadow="2"
     inkscape:pageopacity="0.0"
     inkscape:pagecheckerboard="0"
     inkscape:document-units="mm"
     showgrid="false"
     inkscape:snap-global="false"
     inkscape:zoom="0.90509668"
     inkscape:cx="397.19514"
     inkscape:cy="75.130096"
     inkscape:window-width="1280"
     inkscape:window-height="1001"
     inkscape:window-x="1358"
     inkscape:window-y="-264"
     inkscape:window-maximized="1"
     inkscape:current-layer="layer1" />
  <defs
     id="defs2" />
  <g
     inkscape:label="Capa 1"
     inkscape:groupmode="layer"
     id="layer1"
     transform="translate(-5.3277692,-111.48502)">
    <g
       id="g26899"
       transform="translate(0,11.575521)">
      <g
         id="g25719"
         transform="matrix(1.6961731,0,0,1.6961731,-8.0366637,-98.144973)">
        <path
           id="path23848"
           style="opacity:1;fill:#ff0000;fill-opacity:1;stroke:none;stroke-width:3.05764;stroke-linejoin:round;stroke-opacity:1"
           d="m 250.36328,441.31836 a 169.90169,169.90169 0 0 0 -129.78516,63.0918 h 25.28126 a 151.26412,151.26412 0 0 1 104.5039,-44.44727 z m 4.65234,0.0371 v 18.63281 a 151.26412,151.26412 0 0 1 35.7168,4.83008 l 8.65235,-16.9668 a 169.90169,169.90169 0 0 0 -44.36915,-6.49609 z m 48.89063,7.86328 -8.59961,16.86328 a 151.26412,151.26412 0 0 1 30.55274,12.70117 l 14.63867,-13.0625 a 169.90169,169.90169 0 0 0 -3.28516,-1.9707 l -0.0645,-0.0371 A 169.90169,169.90169 0 0 0 303.9062,449.21875 Z m 40.70117,19.07031 -14.49414,12.9336 a 151.26412,151.26412 0 0 1 29.72656,23.1875 h 24.96094 a 169.90169,169.90169 0 0 0 -40.19336,-36.1211 z"
           transform="scale(0.26458333)" />
        <path
           id="path23848-3"
           style="fill:#000000;fill-opacity:1;stroke:none;stroke-width:0.809001;stroke-linejoin:round;stroke-opacity:1"
           d="m 66.245863,116.77042 a 44.953155,44.953155 0 0 0 -34.33899,16.69304 h 6.688998 a 40.021965,40.021965 0 0 1 27.649992,-11.76001 z" />
      </g>
      <path
         style="fill:#000000;fill-opacity:1;stroke:#000000;stroke-width:0.448779px;stroke-linecap:butt;stroke-linejoin:miter;stroke-opacity:1"
         d="m 59.616988,147.15286 9.167182,-10.75626 6.74196,0.0551 6.669407,4.07263 49.336763,-30.55911 -49.036898,37.32389 -10.36118,-7.08028 -5.797235,6.99415 z"
         id="path18856"
         sodipodi:nodetypes="ccccccccc" />
      <path
         style="fill:#000000;fill-opacity:1;stroke:#000000;stroke-width:0.448779px;stroke-linecap:butt;stroke-linejoin:miter;stroke-opacity:1"
         d="m 59.607285,147.16068 9.161443,-10.81397 6.610156,0.11602 -9.104915,10.74253 z"
         id="path15800"
         sodipodi:nodetypes="ccccc" />
      <path
         style="fill:#000000;fill-opacity:1;stroke:#000000;stroke-width:0.448779px;stroke-linecap:butt;stroke-linejoin:miter;stroke-opacity:1"
         d="m 5.4214063,136.40469 c 9.7839287,0.55287 27.4762627,-0.89728 28.3540867,2.55128 0.923011,3.62608 -6.784106,4.98661 -6.784106,4.98661 l 6.211303,3.29514 -7.889317,-0.0275 -11.078425,-5.42999 c 0,0 12.728971,1.0784 12.756439,-1.49059 0.023,-2.15194 -15.887567,-1.27565 -15.887567,-1.27565 z"
         id="path10933"
         sodipodi:nodetypes="csccccscc" />
      <path
         style="fill:#000000;fill-opacity:1;stroke:#000000;stroke-width:0.448779px;stroke-linecap:butt;stroke-linejoin:miter;stroke-opacity:1"
         d="m 172.78243,136.544 c 9.78392,0.55286 27.47626,-0.89728 28.35408,2.55128 0.923,3.62608 -6.7841,4.98661 -6.7841,4.98661 l 6.2113,3.29514 -7.88933,-0.0275 -11.07841,-5.42999 c 0,0 12.72896,1.07839 12.75644,-1.4906 0.0231,-2.15193 -15.88758,-1.27564 -15.88758,-1.27564 z"
         id="path10933-7"
         sodipodi:nodetypes="csccccscc" />
      <path
         style="fill:#000000;fill-opacity:1;stroke:#000000;stroke-width:0.448779px;stroke-linecap:butt;stroke-linejoin:miter;stroke-opacity:1"
         d="m 34.032517,147.19388 4.633087,-5.45311 c 0,0 18.755485,1.14885 18.631174,-1.17411 -0.10138,-1.89448 -16.341644,-1.51964 -16.341644,-1.51964 l 2.181007,-2.60473 c 0,0 19.4866,-0.36959 19.790103,3.61623 0.413271,5.42738 -19.80151,4.16134 -19.80151,4.16134 l -2.573096,3.015 z"
         id="path11367"
         sodipodi:nodetypes="ccsccsccc" />
      <path
         style="fill:#000000;fill-opacity:1;stroke:#000000;stroke-width:0.448779px;stroke-linecap:butt;stroke-linejoin:miter;stroke-opacity:1"
         d="m 94.31848,140.47942 4.380401,-3.48129 6.725329,10.2858 -6.776632,-0.0119 z"
         id="path20153"
         sodipodi:nodetypes="ccccc" />
      <rect
         style="fill:#000000;fill-opacity:1;stroke:#000000;stroke-width:0.419291;stroke-linejoin:round;stroke-opacity:1"
         id="rect21245"
         width="18.975365"
         height="2.9110532"
         x="107.91816"
         y="136.37318" />
      <rect
         style="fill:#000000;fill-opacity:1;stroke:#000000;stroke-width:0.41928;stroke-linejoin:round;stroke-opacity:1"
         id="rect21245-5"
         width="18.974491"
         height="2.9110532"
         x="107.93526"
         y="140.54532" />
      <rect
         style="fill:#000000;fill-opacity:1;stroke:#000000;stroke-width:0.41928;stroke-linejoin:round;stroke-opacity:1"
         id="rect21245-5-0"
         width="18.974491"
         height="2.9110532"
         x="130.27301"
         y="136.37184" />
      <rect
         style="fill:#000000;fill-opacity:1;stroke:#000000;stroke-width:0.275209;stroke-linejoin:round;stroke-opacity:1"
         id="rect21245-5-7"
         width="6.7235413"
         height="3.5394506"
         x="140.97925"
         y="-139.32845"
         transform="matrix(0.01525309,0.99988366,-0.99999916,0.00129524,0,0)" />
      <rect
         style="fill:#000000;fill-opacity:1;stroke:#000000;stroke-width:0.419291;stroke-linejoin:round;stroke-opacity:1"
         id="rect21245-9"
         width="18.975365"
         height="2.9110532"
         x="107.909"
         y="144.59756" />
      <rect
         style="fill:#000000;fill-opacity:1;stroke:#000000;stroke-width:0.419291;stroke-linejoin:round;stroke-opacity:1"
         id="rect21245-51"
         width="18.975365"
         height="2.9110532"
         x="152.58888"
         y="136.40341" />
      <rect
         style="fill:#000000;fill-opacity:1;stroke:#000000;stroke-width:0.41928;stroke-linejoin:round;stroke-opacity:1"
         id="rect21245-5-5"
         width="18.974491"
         height="2.9110532"
         x="152.58888"
         y="140.57555" />
      <rect
         style="fill:#000000;fill-opacity:1;stroke:#000000;stroke-width:0.419291;stroke-linejoin:round;stroke-opacity:1"
         id="rect21245-9-7"
         width="18.975365"
         height="2.9110532"
         x="152.58888"
         y="144.62779" />
      <path
         style="fill:#000000;fill-opacity:1;stroke:#000000;stroke-width:0.264082px;stroke-linecap:butt;stroke-linejoin:miter;stroke-opacity:1"
         d="M 6.3247805,149.82629 H 201.68669 l -3.04696,1.36557 H 9.7301708 Z"
         id="path26359" />
    </g>
  </g>
</svg>
